<svg xmlns="http://www.w3.org/2000/svg" xmlns:xlink="http://www.w3.org/1999/xlink" id="Capa_2" data-name="Capa 2" viewBox="0 0 202.71 41"><defs><style> .cls-1, .cls-2 { fill: none; } .cls-3 { fill: #1a365d; } .cls-4 { fill: #00904a; } .cls-5 { fill: #fff; } .cls-6 { fill: #1d3561; } .cls-2 { stroke: #fff; stroke-miterlimit: 10; stroke-width: .14px; } .cls-7 { clip-path: url(#clippath); } .cls-8 { fill: #018e55; } </style><clipPath id="clippath"><rect class="cls-1" width="202.7" height="41"></rect></clipPath></defs><g id="Capa_1-2" data-name="Capa 1"><g class="cls-7"><g><path class="cls-6" d="M20.5.34C9.37.34.34,9.36.34,20.5s9.03,20.16,20.16,20.16,20.16-9.02,20.16-20.16S31.64.34,20.5.34Z"></path><path class="cls-2" d="M20.5.34C9.37.34.34,9.36.34,20.5s9.03,20.16,20.16,20.16,20.16-9.02,20.16-20.16S31.64.34,20.5.34Z"></path><path class="cls-5" d="M20.5,3.22C10.96,3.22,3.22,10.96,3.22,20.5s7.74,17.28,17.29,17.28,17.29-7.74,17.29-17.28S30.05,3.22,20.5,3.22Z"></path><path class="cls-8" d="M20.5,5.99c-8.01,0-14.51,6.5-14.51,14.51s6.5,14.51,14.51,14.51,14.51-6.5,14.51-14.51-6.5-14.51-14.51-14.51Z"></path><path class="cls-5" d="M10.46,15.17l-4.5,11.02,8.72,2.85,4.19-16.09-8.4,2.22Z"></path><path class="cls-5" d="M21.67,12.23l-4.39,17.66,10.98,3.59,3.74-23.99-10.32,2.74Z"></path><path class="cls-3" d="M200.04,15.07c-1.24,0-2.26,1.02-2.26,2.26s1.02,2.31,2.26,2.31,2.31-1.02,2.31-2.31-1.01-2.26-2.31-2.26ZM200.04,19.31c-1.06,0-1.94-.87-1.94-1.98s.88-1.94,1.94-1.94,1.98.87,1.98,1.94-.88,1.98-1.98,1.98Z"></path><path class="cls-3" d="M201.06,18.02c0-.51-.09-.55-.27-.64.23-.1.37-.32.37-.6,0-.23-.14-.74-.79-.74h-1.29v2.54h.51v-.97h.55c.42,0,.42.14.42.46,0,.28,0,.42.05.51h.6v-.05c-.14-.05-.14-.14-.14-.51M200.23,17.14h-.65v-.65h.65c.32,0,.37.18.37.32,0,.23-.09.32-.37.32"></path><path class="cls-3" d="M46.09,30.75h11.23c-.22-.54-.27-.86-.27-1.35,0-.54.11-1.67.27-2.1l3.13-12.25h7.72l.97-3.78h-7.72l.54-1.99c.27-1.08.65-1.24,2.81-1.24h2.86c1.35,0,2.16.16,3.02.65l.59-4.43h-10.96c-2.64,0-4.1.27-5.23.97-1.56.92-2.05,1.78-2.86,5.01l-.33,1.02h-4.32l-.97,3.78h4.32l-2.86,11.17c-.65,2.42-.97,3.13-1.94,4.53"></path><path class="cls-3" d="M93.74,25.73l1.83-7.18c.27-.97.32-1.62.32-2.27,0-1.08-.38-2.32-1.02-3.18-1.08-1.35-2.32-1.83-4.86-1.83h-11.82c-2.64,0-4,.16-5.12.65-1.46.65-2.48,2.05-2.97,3.72l-2.21,8.63c-.16.7-.22,1.08-.22,1.67,0,1.51.59,2.86,1.73,3.78,1.08.92,1.67,1.02,4.75,1.02h11.77c3.07,0,4.37-.27,5.56-1.13,1.24-.92,1.67-1.78,2.27-3.89ZM86.19,17.75l-1.94,7.61c-.32,1.4-.7,1.67-2.43,1.67h-2.86c-1.24,0-1.84-.33-1.84-1.13,0-.11,0-.22.22-1.13l2.05-8.04c.38-1.29.81-1.67,2.43-1.67h2.64c1.4,0,2.05.38,2.05,1.35,0,.27-.05.48-.32,1.35"></path><path class="cls-3" d="M117,17.64l1.67-6.37h-5.45c-2.92,0-4.05.7-5.45,3.29l.16-1.02v-1.35l.11-.92h-8.96c.21.59.27.92.27,1.4,0,.54-.11,1.56-.27,2.1l-2.97,11.43c-.65,2.37-.92,3.13-1.94,4.53h11.23c-.22-.54-.22-.87-.22-1.35,0-.59.11-1.67.22-2.1l2.32-9.01c.33-1.24.97-1.67,2.64-1.67h3.35c1.46,0,2.43.32,3.29,1.02"></path><path class="cls-3" d="M138.91,11.28h-5.62c-.97,0-1.51.05-1.94.27-.32.16-.59.38-.86.76l.86-3.4,1.19-4.64h-10.47c.22.54.27.86.27,1.35,0,.54-.16,1.73-.27,2.1l-4.75,18.56c-.65,2.32-.97,3.07-1.94,4.48h10.31l.43-1.78c.49,1.4,1.19,1.78,3.46,1.78h7.13c3.4,0,5.23-1.45,6.15-5.01l1.78-7.01c.22-.76.38-1.89.38-2.53,0-1.45-.54-2.59-1.73-3.61-1.24-.97-2.21-1.29-4.37-1.29M135.4,17.53l-1.78,6.9c-.54,2.1-.81,2.53-2.27,2.59h-2.53c-1.19,0-1.78-.43-1.78-1.13,0-.16,0-.22.16-1.02l2.05-7.87c.43-1.62.76-1.94,2.1-1.94h2.38c1.35,0,1.94.43,1.94,1.24,0,.16,0,.22-.27,1.24"></path><path class="cls-3" d="M166.49,27.03h-9.39c-1.01-.04-1.6-.07-1.78-.11-.43-.16-.81-.65-.81-1.13,0-.16.11-.7.16-1.08l.49-1.84h16.08l1.24-4.8c.16-.7.27-1.35.27-1.94,0-1.41-.49-2.59-1.51-3.51-1.08-1.02-2.37-1.35-5.23-1.35h-12.26c-3.46,0-5.45,1.4-6.2,4.37l-2.27,8.63c-.11.54-.16,1.19-.16,1.62,0,1.3.6,2.53,1.62,3.51.97.92,2.43,1.35,4.48,1.35h17.05l1.67-4.15c-.97.32-1.73.43-3.46.43ZM156.72,16.88c.43-1.56.76-1.83,2.27-1.83h2.97c.97,0,1.46.27,1.46.97,0,.11-.11.48-.16.86l-.59,2.27h-6.48l.54-2.27h0Z"></path><path class="cls-3" d="M184.68,28.06c.91,1.67.91,1.78.91,2.7h12.09c-1.02-1.08-1.84-2.16-2.59-3.45l-4.21-7.18,11.82-8.84h-6.91c-.16.43-.65.97-1.94,2.05l-4.97,3.5-1.35-2.38c-.7-1.13-.97-2.1-1.02-3.18h-12.09c.76.59.86.76,1.84,2.42l5.08,8.74-11.23,8.31h6.85c.16-.54.43-.81,1.45-1.62l4.8-3.67"></path><path class="cls-4" d="M102.93,35.52l.25-1.29c.07-.36.24-.62.52-.78.23-.13.54-.2.92-.2h3.05v.96c-.11-.07-.21-.12-.33-.14-.12-.03-.25-.04-.41-.04h-1.62c-.1,0-.18.02-.25.05-.06.03-.1.1-.12.2l-.03.16c-.01.07-.01.11-.01.12,0,.08.02.12.07.14.05.01.13.02.26.02h1.16c.37,0,.63.04.78.12.2.1.3.29.3.57v.17c-.01.06-.02.1-.03.12l-.25,1.28c-.07.37-.24.63-.52.78-.23.13-.53.19-.92.19h-3.12l.02-.94c.11.07.23.12.37.14.14.02.29.03.47.03h1.64c.1,0,.17-.02.21-.05.04-.03.07-.1.09-.2l.03-.15c0-.07.01-.11.01-.13,0-.06-.01-.1-.04-.12-.02-.02-.06-.04-.13-.04h-1.33c-.37,0-.63-.04-.79-.12-.2-.1-.3-.28-.3-.56v-.18c.01-.06.02-.1.03-.12ZM107.95,36.75l.27-1.4c.04-.21.06-.34.06-.39.01-.05.01-.11.01-.18,0-.12-.02-.23-.05-.31h1.84l-.45,2.35c-.02.1-.03.17-.03.21,0,.09.02.16.06.2.05.04.13.06.25.06h.41c.16,0,.28-.03.34-.08.07-.06.12-.17.15-.34l.3-1.52c.04-.21.06-.34.06-.39,0-.05.01-.11.01-.18,0-.05,0-.1-.01-.15,0-.06-.02-.11-.04-.16h1.84l-.5,2.6c-.03.13-.05.22-.06.28-.02.12-.04.21-.04.28,0,.07,0,.12,0,.15,0,.03.03.08.06.16h-1.61v-.32c-.09.14-.19.23-.31.27-.08.03-.22.05-.4.05h-1.31c-.34,0-.58-.06-.73-.17-.14-.11-.21-.29-.21-.54,0-.13.02-.29.06-.49ZM112.9,39.17l.73-3.83c.02-.1.04-.2.05-.3.02-.1.03-.19.03-.26,0-.11-.02-.22-.05-.31h1.63v.32c.12-.13.23-.21.35-.25.12-.04.27-.06.44-.06h1.21c.3,0,.53.06.68.18.16.12.24.3.24.56v.16c-.01.06-.02.1-.03.12l-.29,1.5c-.05.29-.17.52-.37.7s-.43.27-.73.27h-1.4c-.27,0-.44-.11-.51-.32l-.13.67c-.03.13-.05.24-.06.31,0,.08-.01.16-.01.25,0,.11.02.22.05.31h-1.84ZM115.38,37.29h.38c.16,0,.27-.03.32-.1.06-.07.11-.19.15-.36l.26-1.38s0-.05,0-.09c0-.15-.1-.23-.3-.23h-.46c-.24,0-.39.13-.44.39l-.27,1.4c-.01.06-.01.09-.01.11,0,.17.12.25.37.25ZM123.01,36.55h-2.87l-.06.29c-.01.07-.02.13-.02.19,0,.11.03.18.1.22.07.03.19.05.35.05h1.54c.21,0,.36-.01.46-.04.1-.02.21-.07.32-.13l-.28.82h-3.1c-.38,0-.65-.05-.82-.16-.19-.12-.28-.33-.28-.63,0-.12.01-.25.04-.39l.22-1.12c.08-.42.23-.72.45-.9s.54-.27.96-.27h2.14c.37,0,.64.06.8.17.17.11.25.3.25.59,0,.12-.01.25-.04.41l-.18.91ZM121.46,35.89l.07-.37c.01-.07.02-.12.02-.18,0-.07-.02-.12-.05-.15-.03-.04-.08-.06-.17-.06h-.67c-.09,0-.17.03-.21.08-.04.05-.08.14-.1.25l-.08.42h1.19ZM123.56,37.15l.35-1.8c.04-.21.06-.34.06-.39,0-.05.01-.11.01-.18,0-.12-.02-.23-.05-.31h1.68l-.07.57c.12-.23.25-.38.4-.45.15-.08.35-.12.61-.12h.85l-.23,1.15c-.07-.08-.16-.13-.28-.16-.11-.03-.24-.04-.39-.04h-.35c-.17,0-.32.04-.44.13-.12.09-.2.22-.23.39l-.22,1.13c-.04.21-.06.34-.07.39,0,.05,0,.11,0,.18,0,.11.02.22.05.31h-1.98c.06-.08.11-.16.14-.25.06-.16.11-.34.15-.55ZM127.32,37.15l.39-2.02h-.48l.13-.66h.48l.05-.27c.05-.28.18-.51.39-.69.21-.18.46-.27.74-.27h2.22l-.02.82c-.15-.1-.32-.15-.5-.15h-.73c-.13,0-.22.03-.28.08-.06.05-.1.13-.12.26l-.04.22h1.17l-.13.66h-1.17l-.37,1.95c-.03.13-.05.22-.06.28-.02.12-.04.21-.04.28,0,.07,0,.12,0,.15,0,.03.03.08.06.16h-1.99s.05-.06.06-.09c.1-.17.18-.41.23-.7ZM133.13,33.25l-.17.88h-1.71l.17-.88h1.71ZM130.67,37.15l.35-1.8c.04-.21.06-.34.06-.39,0-.05.01-.11.01-.18,0-.12-.02-.23-.05-.31h1.85l-.5,2.6c-.03.13-.05.22-.06.28-.02.12-.04.21-.04.28,0,.07,0,.12,0,.15,0,.03.03.08.06.16h-1.99c.06-.08.11-.17.14-.25.06-.16.11-.34.15-.54ZM133.07,36.99l.3-1.57c.06-.32.23-.56.5-.73.24-.14.52-.21.85-.21h2.59l-.02.83c-.08-.07-.18-.11-.29-.13-.1-.03-.22-.04-.37-.04h-1.03c-.17,0-.3.03-.39.08-.09.05-.14.16-.17.32l-.27,1.4c0,.06-.01.09-.01.11,0,.1.04.17.1.2.08.03.19.05.33.05h.97c.15,0,.27-.01.39-.04.12-.03.24-.08.38-.16l-.3.85h-2.54c-.31,0-.55-.05-.73-.16-.22-.13-.33-.33-.33-.6,0-.06,0-.13.02-.21ZM139.91,33.25l-.17.88h-1.71l.17-.88h1.71ZM137.46,37.15l.35-1.8c.04-.21.06-.34.06-.39,0-.05.01-.11.01-.18,0-.12-.02-.23-.05-.31h1.85l-.5,2.6c-.03.13-.05.22-.06.28-.02.12-.04.21-.04.28,0,.07,0,.12,0,.15,0,.03.03.08.06.16h-1.99c.06-.08.11-.17.14-.25.06-.16.11-.34.15-.54ZM144.5,36.55h-2.87l-.06.29c-.01.07-.02.13-.02.19,0,.11.04.18.11.22.07.03.19.05.35.05h1.54c.21,0,.36-.01.46-.04.1-.02.21-.07.32-.13l-.28.82h-3.1c-.38,0-.65-.05-.82-.16-.19-.12-.28-.33-.28-.63,0-.12.01-.25.04-.39l.22-1.12c.08-.42.23-.72.45-.9.22-.18.54-.27.96-.27h2.14c.37,0,.64.06.8.17.17.11.25.3.25.59,0,.12-.01.25-.04.41l-.18.91ZM142.95,35.89l.07-.37c.01-.07.02-.12.02-.18,0-.07-.02-.12-.05-.15-.03-.04-.08-.06-.17-.06h-.67c-.09,0-.16.03-.21.08-.04.05-.07.14-.1.25l-.08.42h1.19ZM145.17,36.02l.1-.57c.08-.39.28-.66.61-.81.23-.11.57-.16.99-.16h2.66v.87c-.12-.1-.23-.16-.35-.18-.11-.02-.27-.04-.47-.04h-1.52c-.07,0-.13,0-.18.03-.04.02-.07.06-.08.13-.02.11.03.17.17.17h1.42c.3,0,.52.05.66.16.15.11.22.28.22.52v.17c-.01.06-.02.1-.03.12l-.1.49c-.07.37-.24.64-.52.82-.24.15-.55.22-.94.22h-2.97v-.89c.19.1.33.16.44.19.12.03.29.04.51.04h1.49c.09,0,.17-.01.23-.04.06-.02.1-.08.11-.16.01-.07,0-.12-.05-.14-.05-.03-.11-.04-.18-.04h-1.51c-.5,0-.75-.21-.75-.63v-.15c.01-.05.02-.09.03-.11ZM152.92,37.25l.63-3.31c.02-.08.03-.17.03-.27,0-.16-.03-.3-.09-.42h3.88c.34,0,.59.08.75.25.16.16.24.39.24.69,0,.12-.01.26-.04.41l-.38,2.01c-.08.42-.24.74-.46.97-.25.25-.58.38-1.01.38h-3.88c.06-.08.11-.14.13-.19.1-.17.16-.34.2-.51ZM154.71,37.18h.85c.2,0,.34-.04.42-.13.06-.07.11-.2.15-.42l.39-2.05c.02-.09.03-.15.03-.17,0-.02,0-.06,0-.11,0-.1-.03-.17-.08-.2-.05-.04-.15-.06-.3-.06h-.85l-.61,3.15ZM163.02,36.55h-2.87l-.06.29c-.01.07-.02.13-.02.19,0,.11.03.18.11.22.07.03.19.05.35.05h1.54c.21,0,.36-.01.46-.04.1-.02.21-.07.32-.13l-.28.82h-3.09c-.38,0-.65-.05-.82-.16-.19-.12-.28-.33-.28-.63,0-.12.01-.25.04-.39l.22-1.12c.08-.42.23-.72.45-.9.22-.18.54-.27.96-.27h2.14c.37,0,.64.06.8.17.17.11.25.3.25.59,0,.12-.01.25-.04.41l-.18.91ZM161.47,35.89l.07-.37c.01-.07.02-.12.02-.18,0-.07-.02-.12-.05-.15-.03-.04-.08-.06-.17-.06h-.67c-.09,0-.16.03-.21.08-.04.05-.07.14-.1.25l-.08.42h1.19ZM163.14,39.17l.73-3.83c.02-.1.03-.2.05-.3.02-.1.03-.19.03-.26,0-.11-.02-.22-.05-.31h1.63v.32c.12-.13.23-.21.35-.25.12-.04.27-.06.44-.06h1.21c.3,0,.53.06.68.18.16.12.24.3.24.56v.16c-.01.06-.02.1-.03.12l-.29,1.5c-.05.29-.17.52-.37.7-.19.18-.43.27-.73.27h-1.4c-.27,0-.44-.11-.51-.32l-.13.67c-.03.13-.05.24-.06.31,0,.08-.01.16-.01.25,0,.11.02.22.05.31h-1.84ZM165.62,37.29h.38c.16,0,.27-.03.32-.1.06-.07.11-.19.15-.36l.26-1.38s0-.05,0-.09c0-.15-.1-.23-.3-.23h-.46c-.24,0-.38.13-.44.39l-.27,1.4c0,.06-.01.09-.01.11,0,.17.12.25.37.25ZM170.28,34.48h2.24c.37,0,.64.05.81.16.2.12.3.33.3.61,0,.06,0,.11,0,.15,0,.03-.01.09-.03.18l-.27,1.38c-.13.67-.52,1-1.19,1h-2.38c-.38,0-.66-.05-.83-.14-.22-.11-.33-.32-.33-.61v-.11s0-.09.03-.18l.28-1.47c.06-.28.2-.51.42-.69.23-.19.48-.28.76-.28h.19ZM170.61,35.52l-.26,1.37s-.01.09-.01.16c0,.17.12.25.35.25h.48c.15,0,.26-.03.33-.1.08-.07.13-.18.16-.33l.25-1.3s0-.06,0-.08c0-.03,0-.06,0-.07,0-.19-.13-.28-.4-.28h-.41c-.27,0-.43.13-.49.39ZM173.95,37.15l.35-1.8c.04-.21.06-.34.06-.39,0-.05.01-.11.01-.18,0-.12-.02-.23-.05-.31h1.68l-.07.57c.12-.23.25-.38.4-.45.15-.08.35-.12.61-.12h.85l-.23,1.15c-.07-.08-.16-.13-.28-.16-.11-.03-.24-.04-.39-.04h-.35c-.17,0-.32.04-.44.13-.12.09-.2.22-.23.39l-.22,1.13c-.04.21-.06.34-.07.39,0,.05,0,.11,0,.18,0,.11.02.22.05.31h-1.98c.06-.08.11-.16.14-.25.06-.16.11-.34.15-.55ZM177.87,36.87l.34-1.74h-.53l.13-.66h.53l.13-.71,1.71-.07-.15.78h1.44l-.13.66h-1.44l-.31,1.61c-.02.13-.03.23-.03.28,0,.1.03.17.09.2.06.04.18.06.35.06h.46c.14,0,.26-.01.38-.04.12-.03.23-.08.34-.15l-.3.85h-1.8c-.41,0-.71-.04-.89-.13-.24-.11-.36-.33-.36-.64v-.13s.02-.09.04-.18ZM184.04,33.25l-.17.88h-1.71l.17-.88h1.7ZM181.59,37.15l.35-1.8c.04-.21.06-.34.06-.39,0-.05.01-.11.01-.18,0-.12-.02-.23-.05-.31h1.85l-.5,2.6c-.03.13-.05.22-.06.28-.02.12-.04.21-.04.28,0,.07,0,.12,0,.15,0,.03.03.08.06.16h-1.99c.06-.08.11-.17.14-.25.06-.16.11-.34.15-.54ZM186.88,37.95h-1.87l-.71-3.01c-.01-.08-.03-.15-.06-.22-.02-.07-.06-.15-.1-.25h2.08l-.03.13c-.01.08-.01.13-.01.16,0,.04,0,.09.01.14,0,.05.02.09.03.13l.47,2.01,1.16-1.9c.06-.1.11-.19.14-.25.05-.1.08-.19.1-.27v-.14h.95c-.08.1-.18.23-.3.4-.11.17-.17.26-.18.27l-1.68,2.8ZM189.45,34.48h3.33c.25,0,.46.06.61.2.15.14.23.33.23.56,0,.07,0,.14-.02.22l-.31,1.61c-.02.21-.05.41-.07.61,0,.09.01.18.04.26h-1.67s-.02-.08-.03-.13c0-.04,0-.09,0-.15v-.09c-.07.13-.16.23-.28.28-.12.06-.26.08-.42.08h-1.27c-.31,0-.54-.05-.69-.15-.15-.1-.22-.27-.22-.51v-.11s0-.1.03-.19l.11-.59c.05-.26.17-.46.36-.59.19-.14.41-.2.68-.2h1.73c.1,0,.17-.01.23-.04.06-.03.09-.1.11-.19.02-.1,0-.16-.06-.19-.06-.03-.14-.05-.26-.05h-1.65c-.16,0-.29.01-.4.04-.11.02-.23.06-.36.13l.28-.82ZM191.75,36.25h-.82c-.16,0-.27.03-.35.1-.07.07-.11.18-.14.35l-.03.16c-.01.07-.02.12-.02.18,0,.09.03.16.08.2.05.04.14.06.26.06h.42c.16,0,.27-.03.34-.1.07-.07.12-.18.15-.35l.11-.6ZM194.2,36.02l.1-.57c.08-.39.28-.66.61-.81.24-.11.57-.16.99-.16h2.66v.87c-.12-.1-.23-.16-.35-.18-.11-.02-.27-.04-.47-.04h-1.52c-.08,0-.13,0-.18.03-.04.02-.07.06-.08.13-.02.11.03.17.17.17h1.42c.3,0,.52.05.66.16.15.11.22.28.22.52v.17c-.01.06-.02.1-.03.12l-.1.49c-.07.37-.24.64-.52.82-.24.15-.55.22-.94.22h-2.97v-.89c.19.1.33.16.44.19.12.03.29.04.51.04h1.49c.09,0,.17-.01.23-.04.06-.02.1-.08.11-.16.01-.07,0-.12-.05-.14-.05-.03-.11-.04-.18-.04h-1.51c-.5,0-.75-.21-.75-.63v-.15c.01-.05.02-.09.03-.11Z"></path><path class="cls-4" d="M101.28,37.83h-55.24v.58h55.24v-.58Z"></path></g></g></g></svg>